<svg id="SLOVAK_Logo_Color" xmlns="http://www.w3.org/2000/svg" width="146.915" height="43.5" viewBox="0 0 146.915 43.5">
  <path id="Path_1" data-name="Path 1" d="M232.557,69.811c.066,1.389.925,1.836,2.23,1.836.926,0,1.884-.332,1.884-1.207,0-1.041-1.685-1.24-3.387-1.719-1.685-.479-3.453-1.239-3.453-3.4,0-2.578,2.594-3.586,4.808-3.586,2.346,0,4.71,1.14,4.726,3.8h-3.073c.049-1.074-.959-1.421-1.9-1.421-.661,0-1.488.232-1.488,1.008,0,.909,1.7,1.074,3.421,1.553,1.7.48,3.42,1.273,3.42,3.4,0,2.991-2.545,3.95-5.138,3.95-2.71,0-5.106-1.189-5.122-4.214h3.073m8.389-7.832h9.4v2.462h-6.328v2.066H249.8v2.379h-5.783v2.247h6.493v2.644h-9.566V61.98m13.73,5.122h2.578a1.264,1.264,0,0,0,1.421-1.388c0-.877-.693-1.273-1.553-1.273h-2.446ZM251.6,61.979h6.015c2.082,0,4.131.942,4.131,3.322a3.032,3.032,0,0,1-1.851,2.957v.033c1.256.3,1.62,1.7,1.719,2.825.033.5.082,2.23.5,2.66h-3.041a5.709,5.709,0,0,1-.347-1.884c-.082-1.189-.28-2.412-1.718-2.412h-2.33v4.3H251.6V61.98m17.383,11.8H265.45l-3.718-11.8h3.206l2.314,8.774h.032l2.314-8.774h3.2l-3.816,11.8m4.032-11.8h3.073v11.8h-3.073v-11.8m12.375,4.214a2.139,2.139,0,0,0-2.379-1.817c-1.983,0-2.744,1.752-2.744,3.5s.76,3.5,2.744,3.5a2.19,2.19,0,0,0,2.379-2.181h3.073c-.165,3.04-2.4,4.825-5.386,4.825a6.152,6.152,0,0,1,0-12.293c2.545,0,5.3,1.619,5.386,4.461h-3.073m4.048-4.214h9.4v2.462h-6.328v2.066H298.3v2.379h-5.783v2.247h6.493v2.644h-9.566V61.98m-56.208-9.262H235.3c.959,0,1.653-.4,1.653-1.471a1.452,1.452,0,0,0-1.653-1.553h-2.065Zm-3.074-5.486h5.6c2.2,0,4.264,1.008,4.264,3.8,0,2.925-1.67,4.065-4.264,4.065h-2.527V59.03h-3.074v-11.8m13.065,7.4H245.9L244.6,50.5h-.033Zm-.2-7.4h3.123l4.412,11.8h-3.206l-.727-2.115h-4.115l-.744,2.115h-3.156l4.412-11.8m10.839,5.122h2.577a1.265,1.265,0,0,0,1.422-1.388c0-.876-.695-1.272-1.553-1.272h-2.445Zm-3.073-5.122h6.013c2.083,0,4.131.941,4.131,3.321a3.034,3.034,0,0,1-1.85,2.958v.033c1.256.3,1.619,1.7,1.718,2.825.033.5.082,2.231.5,2.661h-3.04a5.706,5.706,0,0,1-.347-1.884c-.083-1.189-.281-2.412-1.719-2.412h-2.329v4.3h-3.073v-11.8m18.991,4.214a2.14,2.14,0,0,0-2.38-1.818c-1.983,0-2.743,1.752-2.743,3.5s.76,3.5,2.743,3.5a2.191,2.191,0,0,0,2.38-2.181h3.073c-.166,3.04-2.4,4.824-5.386,4.824a5.807,5.807,0,0,1-5.882-6.146,5.808,5.808,0,0,1,5.882-6.146c2.544,0,5.3,1.619,5.386,4.462h-3.073m4.048-4.214h9.4v2.462h-6.328v2.066h5.783v2.379h-5.783v2.247H283.4v2.643h-9.567v-11.8m10.658,0h3.073v9.154h5.5V59.03h-8.575v-11.8m-51.934-6.9c.066,1.388.925,1.834,2.23,1.834.926,0,1.884-.33,1.884-1.206,0-1.041-1.685-1.239-3.387-1.718-1.685-.48-3.453-1.24-3.453-3.4,0-2.578,2.594-3.586,4.808-3.586,2.346,0,4.71,1.14,4.726,3.8h-3.073c.049-1.074-.959-1.422-1.9-1.422-.661,0-1.488.232-1.488,1.009,0,.909,1.7,1.074,3.421,1.553,1.7.479,3.42,1.272,3.42,3.4,0,2.99-2.545,3.949-5.138,3.949-2.71,0-5.106-1.19-5.122-4.213h3.073m8.163-7.832h3.073v9.153h5.5v2.644h-8.575V32.5m14.7,9.4c1.983,0,2.744-1.751,2.744-3.5s-.76-3.5-2.743-3.5-2.743,1.751-2.743,3.5.76,3.5,2.743,3.5m0-9.65c3.718,0,5.816,2.726,5.816,6.147s-2.1,6.147-5.816,6.147-5.816-2.726-5.816-6.147,2.1-6.147,5.816-6.147M268.26,44.295h-3.536l-3.718-11.8h3.205l2.313,8.774h.033l2.313-8.774h3.206l-3.817,11.8m6.61-4.4h2.676l-1.3-4.13h-.033Zm-.2-7.4H277.8l4.411,11.8H279l-.727-2.115H274.16l-.744,2.115H270.26l4.412-11.8m7.992,0h3.074v4.527L289.62,32.5h3.817l-4.362,4.642,4.907,7.155h-3.817l-3.172-4.957-1.256,1.322v3.635h-3.074V32.5" transform="translate(-152.093 -31.409)" fill="#43515a"/>
  <path id="Path_2" data-name="Path 2" d="M101.942,32.641a2.48,2.48,0,0,0-2.292-1.446v0h-.058l-8.728,0-.4.608c-.2.3-2.178,3.258-5.15,7.414l-.077.106A152.746,152.746,0,0,1,74.765,52.431c-9.635,10.729-13.75,12.784-15.6,13.662l-.24.114a15.2,15.2,0,0,1-6.778,1.514A15.9,15.9,0,1,1,64.923,42.379l3.528-4.942A21.754,21.754,0,1,0,52.119,73.588c12.871,0,22.986-8.917,29.478-15.62,5.1-5.269,19.475-21.84,19.619-22.006l-.01-.01a3.145,3.145,0,0,0,.735-3.312" transform="translate(-30.389 -30.088)" fill="#f58220"/>
  <path id="Path_3" data-name="Path 3" d="M73.19,55.482c-2.314,3.238-5.521,6.663-9.843,6.249a8.219,8.219,0,0,1-7.358-8.179,7.931,7.931,0,0,1,2.384-5.772,8.206,8.206,0,0,1,13.309,2.38,7.41,7.41,0,0,1,.343.88l3.829-5.354-.187-.315A14.084,14.084,0,1,0,64.2,67.639a13.172,13.172,0,0,0,5.989-1.333l.255-.121c1.6-.76,5.639-2.777,15.031-13.236A151.238,151.238,0,0,0,95.824,39.993l.076-.106q2.473-3.452,4.851-6.97l-11.378,0-.024,0c-.141.2-14.036,19.681-15.157,21.183l-1,1.382" transform="translate(-42.45 -31.816)" fill="#f47216"/>
</svg>
