<svg width="105" height="21" viewBox="0 0 105 21" fill="none" xmlns="http://www.w3.org/2000/svg">
<g id="Group">
<g id="Group_2">
<g id="Group_3">
<path id="Vector" d="M0.255371 0.68779H19.8798V20.3122H0.255371V0.68779ZM21.4865 0.68779H41.1109V20.3122H21.4865V0.68779ZM42.7558 0.68779H62.3802V20.3122H42.7558V0.68779ZM64.0252 0.68779H83.6496V20.3122H64.0252V0.68779ZM85.2563 0.68779H104.881V20.3122H85.2563V0.68779Z" fill="#00B67A"/>
</g>
<path id="Vector_2" d="M10.0487 13.8855L13.0325 13.1204L14.2949 16.9458L10.0487 13.8855ZM16.9344 8.91245H11.6936L10.0487 3.97765L8.442 8.91245H3.20117L7.44738 11.9728L5.84071 16.9076L10.0869 13.8472L12.6882 12.011L16.9344 8.91245ZM31.318 13.8855L34.3019 13.1204L35.5642 16.9458L31.318 13.8855ZM38.1655 8.91245H32.9247L31.318 3.97765L29.7114 8.91245H24.4705L28.7167 11.9728L27.1101 16.9076L31.3563 13.8472L33.9576 11.9728L38.1655 8.91245ZM52.5491 13.8855L55.533 13.1204L56.7953 16.9458L52.5491 13.8855ZM59.4349 8.91245H54.1941L52.5491 3.97765L50.9425 8.91245H45.7016L49.9478 11.9728L48.3412 16.9076L52.5874 13.8472L55.1887 11.9728L59.4349 8.91245ZM73.8185 13.8855L76.8023 13.1204L78.0647 16.9458L73.8185 13.8855ZM80.7042 8.91245H75.4252L73.8185 3.97765L72.2118 8.91245H66.971L71.2172 11.9728L69.6105 16.9076L73.8567 13.8472L76.458 11.9728L80.7042 8.91245ZM95.0878 13.8855L98.0717 13.1204L99.3341 16.9458L95.0878 13.8855ZM101.935 8.91245H96.6945L95.0878 3.97765L93.4812 8.91245H88.2403L92.4866 11.9728L90.8799 16.9076L95.1261 13.8472L97.7274 11.9728L101.935 8.91245Z" fill="white"/>
</g>
</g>
</svg>
