<?xml version="1.0" encoding="UTF-8"?>
<svg id="globe" xmlns="http://www.w3.org/2000/svg" version="1.1" viewBox="0 0 40 40">
  <defs>
    <style>
      .cls-1 {
        fill: #98a3b3;
        stroke-width: 0px;
      }
    </style>
  </defs>
  <path class="cls-1" d="M38,20c0-9.4-7.3-17.2-16.5-17.9-.5,0-1,0-1.5,0s-1,0-1.5,0C9.3,2.8,2,10.6,2,20s7.3,17.2,16.5,17.9c.5,0,1,0,1.5,0s1,0,1.5,0c9.2-.8,16.5-8.5,16.5-17.9ZM30,19c-.1-2.7-.7-5.2-1.6-7.6,1.3-.5,2.6-1.1,3.8-1.9,2.2,2.6,3.6,5.8,3.9,9.4h-6ZM21,4.4c1.8,1.7,3.4,3.6,4.6,5.8-1.5.4-3,.7-4.6.7v-6.6ZM19,11c-1.6,0-3.1-.3-4.6-.7,1.2-2.2,2.7-4.2,4.6-5.8v6.6ZM19,13v6h-7c.1-2.4.6-4.8,1.5-6.9,1.7.5,3.6.8,5.4.9ZM19,21v6c-1.9,0-3.7.4-5.4.9-.9-2.2-1.4-4.5-1.5-6.9h7ZM19,29v6.6c-1.8-1.7-3.4-3.6-4.6-5.8,1.5-.4,3-.7,4.6-.7ZM21,29c1.6,0,3.1.3,4.6.7-1.2,2.2-2.7,4.2-4.6,5.8v-6.6ZM21,27v-6h7c-.1,2.4-.6,4.8-1.5,6.9-1.7-.5-3.6-.8-5.4-.9ZM21,19v-6c1.9,0,3.7-.4,5.4-.9.9,2.2,1.4,4.5,1.5,6.9h-7ZM27.5,9.6c-.9-1.8-2.1-3.5-3.5-5.1,2.5.6,4.8,1.9,6.6,3.5-1,.6-2,1.1-3.1,1.5ZM12.5,9.6c-1.1-.4-2.1-.9-3.1-1.5,1.9-1.7,4.1-2.9,6.6-3.5-1.4,1.5-2.6,3.2-3.5,5.1ZM11.7,11.4c-.9,2.4-1.5,4.9-1.6,7.6h-6c.2-3.6,1.6-6.9,3.9-9.4,1.2.7,2.4,1.4,3.8,1.9ZM10,21c.1,2.7.7,5.2,1.6,7.6-1.3.5-2.6,1.1-3.8,1.9-2.2-2.6-3.6-5.8-3.9-9.4h6ZM12.5,30.4c.9,1.8,2.1,3.5,3.5,5.1-2.5-.6-4.8-1.9-6.6-3.5,1-.6,2-1.1,3.1-1.5ZM27.5,30.4c1.1.4,2.1.9,3.1,1.5-1.9,1.7-4.1,2.9-6.6,3.5,1.4-1.5,2.6-3.2,3.5-5.1ZM28.3,28.6c.9-2.4,1.5-4.9,1.6-7.6h6c-.2,3.6-1.6,6.9-3.9,9.4-1.2-.7-2.4-1.4-3.8-1.9Z"/>
</svg>